<?xml version="1.0" encoding="UTF-8"?>
<svg id="Capa_2" data-name="Capa 2" xmlns="http://www.w3.org/2000/svg" xmlns:xlink="http://www.w3.org/1999/xlink" viewBox="0 0 29.64 29.64">
  <defs>
    <style>
      .cls-1, .cls-2 {
        stroke-width: 0px;
      }

      .cls-2 {
        fill: #fff;
      }
    </style>
    <symbol id="MT.02.1" viewBox="0 0 850.39 850.39">
      <g>
        <rect class="cls-2" y="0" width="850.39" height="850.39"/>
        <path class="cls-1" d="m595.28,472.3c-5.25,0-10.34.73-15.17,2.08l-108.78-188.41c-11.74-20.34-37.74-27.3-58.08-15.56l14.17,24.55c6.78-3.91,15.44-1.6,19.36,5.18l77.39,134.05-80.63,80.63h-133.52c-6.31-24.42-28.53-42.52-54.9-42.52-31.26,0-56.69,25.43-56.69,56.69s25.43,56.69,56.69,56.69c26.37,0,48.59-18.09,54.9-42.52h143.53v-.72l84.4-84.4,17.63,30.53c-10.48,10.29-16.99,24.61-16.99,40.42,0,31.26,25.43,56.69,56.69,56.69s56.69-25.43,56.69-56.69-25.43-56.69-56.69-56.69Zm-340.16,85.04c-15.63,0-28.35-12.72-28.35-28.35s12.72-28.35,28.35-28.35,28.35,12.72,28.35,28.35-12.72,28.35-28.35,28.35Zm340.16,0c-15.63,0-28.35-12.72-28.35-28.35s12.72-28.35,28.35-28.35,28.35,12.72,28.35,28.35-12.72,28.35-28.35,28.35Z"/>
      </g>
    </symbol>
    <symbol id="MT.03.1" viewBox="0 0 850.39 850.39">
      <g>
        <use width="850.39" height="850.39" xlink:href="#MT.02.1"/>
        <path class="cls-1" d="m382.68,354.37v-28.35h-14.17v28.35h-28.35v-28.35h-14.17v28.35h-14.17v28.35h0c0,18.51,11.83,34.25,28.35,40.09v30.78h28.35v-30.78c16.51-5.84,28.35-21.58,28.35-40.09h0v-28.35h-14.17Z"/>
      </g>
    </symbol>
  </defs>
  <g id="AAFF_Y_FICHA" data-name="AAFF Y FICHA">
    <use width="850.39" height="850.39" transform="scale(.03)" xlink:href="#MT.03.1"/>
  </g>
</svg>