<?xml version="1.0" encoding="UTF-8"?>
<svg id="Capa_2" data-name="Capa 2" xmlns="http://www.w3.org/2000/svg" xmlns:xlink="http://www.w3.org/1999/xlink" viewBox="0 0 29.64 29.64">
  <defs>
    <style>
      .cls-1, .cls-2 {
        stroke-width: 0px;
      }

      .cls-2 {
        fill: #fff;
      }
    </style>
    <symbol id="MT.01.1" viewBox="0 0 850.39 850.39">
      <g>
        <rect class="cls-2" width="850.39" height="850.39"/>
        <path class="cls-1" d="m368.5,334.5v-28.35h-85.04s0,28.35,0,28.35h56.69v8.51l-35.7,35.7c-23.15-18.78-52.64-30.04-84.77-30.04-74.36,0-134.65,60.28-134.65,134.65s60.28,134.65,134.65,134.65c69.58,0,126.82-52.77,133.9-120.47h43.26c7.83,0,14.17,6.35,14.17,14.17s-6.35,14.17-14.17,14.17v28.35c23.48,0,42.52-19.04,42.52-42.52,0-22.07-16.81-40.2-38.32-42.31l106.51-106.51h37.25l6.69,11.59c-33.6,24.48-55.43,64.13-55.43,108.88,0,74.36,60.28,134.65,134.65,134.65s134.65-60.28,134.65-134.65-60.28-134.65-134.65-134.65c-19.47,0-37.96,4.14-54.67,11.57l-61.73-106.95c-3.6-6.09-8.76-11.37-15.33-15.16h0c-20.34-11.74-46.34-4.77-58.08,15.56l24.55,14.17c3.91-6.78,12.58-9.1,19.36-5.19h0c2.1,1.21,3.35,2.46,4.89,4.68l38.75,67.13h0m-224.16,84.47c10.9,14.31,18.26,31.48,20.75,50.18h-70.93l50.18-50.18Zm-93.04,52.98c-3.14,3.06-5.74,6.71-5.74,11.37,0,7.83,6.35,14.17,14.17,14.17h105.36c-6.93,52.01-51.46,92.13-105.36,92.13-58.71,0-106.3-47.59-106.3-106.3s47.59-106.3,106.3-106.3c24.3,0,46.69,8.16,64.59,21.88m76.89,70.25h-7.58c-2.77-26.5-13.23-50.71-29.11-70.37l35.93-35.93h107.05l-106.3,106.3Zm269.54,120.47c-58.71,0-106.3-47.59-106.3-106.3,0-34.25,16.2-64.71,41.36-84.16l56.72,98.26,24.55-14.17-56.73-98.28c12.46-5.12,26.1-7.95,40.4-7.95,58.71,0,106.3,47.59,106.3,106.3s-47.59,106.3-106.3,106.3Z"/>
      </g>
    </symbol>
  </defs>
  <g id="AAFF_Y_FICHA" data-name="AAFF Y FICHA">
    <use width="850.39" height="850.39" transform="scale(.03)" xlink:href="#MT.01.1"/>
  </g>
</svg>