<?xml version="1.0" encoding="UTF-8"?>
<svg id="Capa_2" data-name="Capa 2" xmlns="http://www.w3.org/2000/svg" xmlns:xlink="http://www.w3.org/1999/xlink" viewBox="0 0 29.64 29.64">
  <defs>
    <style>
      .cls-1, .cls-2 {
        stroke-width: 0px;
      }

      .cls-2 {
        fill: #fff;
      }
    </style>
    <symbol id="MT.04.1" viewBox="0 0 850.39 850.39">
      <g>
        <rect class="cls-2" width="850.39" height="850.39"/>
        <g>
          <path class="cls-1" d="m623.62,141.73v-28.35s14.17,0,14.17,0v28.35h28.35v-28.35s14.17,0,14.17,0v28.35h14.17s0,28.35,0,28.35h0c0,18.51-11.83,34.25-28.35,40.09v30.78s-28.35,0-28.35,0v-30.78c-16.51-5.84-28.35-21.58-28.35-40.09h0v-28.35s14.17,0,14.17,0Z"/>
          <g>
            <path class="cls-1" d="m255.12,510.24c-16.83,0-28.35,11.67-28.35,28.35s11.51,28.35,28.35,28.35c17.72,0,28.35-12.5,28.35-28.35,0-16.67-11.51-28.35-28.35-28.35Z"/>
            <path class="cls-1" d="m595.28,510.24c-16.83,0-28.35,11.67-28.35,28.35s10.63,28.35,28.35,28.35,28.35-12.5,28.35-28.35c0-16.67-11.51-28.35-28.35-28.35Z"/>
            <path class="cls-1" d="m694.22,594.47l-12.88-114.25c-2.58-21.48-18.77-37.42-39.39-40.85h-4.53c-4.39-28.91-12.68-91.33-14.74-101.93-6.94-35.77-34.22-68.15-84.48-68.15h-112.94s-.07,0-.07,0h-113.39c-50.26,0-77.54,32.38-84.48,68.15-2.05,10.59-10.34,73.02-14.74,101.93h-4.53c-20.62,3.43-36.81,19.37-39.39,40.85l-12.88,114.25c-2.58,22.33,13.74,43.33,36.93,43.33h19.87v56.69c0,23.57,19.79,42.52,42.52,42.52s42.52-18.95,42.52-42.52v-56.69h254.74v56.69c0,23.57,18.95,42.52,42.52,42.52s42.52-18.95,42.52-42.52v-56.69h19.87c23.19,0,39.51-21,36.93-43.33Zm-439.1-254.31c6.23-26.59,22.23-42.52,56.69-42.52h226.39c34.46,0,50.46,15.93,56.69,42.52,0,0,9.51,67.92,14.17,99.21l-183.87-.02h-.38l-183.87.02c4.66-31.29,14.17-99.21,14.17-99.21Zm14.17,354.33c0,7.58-6.6,14.17-14.17,14.17s-14.17-6.59-14.17-14.17v-56.69h28.35v56.69Zm339.78,0c0,7.58-6.59,14.17-14.17,14.17s-14.17-6.59-14.17-14.17v-56.69h28.35v56.69Zm46.5-85.07l-230.56.03-230.56-.03c-6.87,0-11.16-5.5-10.31-11.52l13.75-114.25c.86-10.31,9.45-15.97,18.9-15.97l208.16.21h.12l208.16-.21c9.45,0,18.04,5.66,18.9,15.97l13.75,114.25c.86,6.01-3.44,11.52-10.31,11.52Z"/>
          </g>
        </g>
      </g>
    </symbol>
  </defs>
  <g id="AAFF_Y_FICHA" data-name="AAFF Y FICHA">
    <use width="850.39" height="850.39" transform="scale(.03)" xlink:href="#MT.04.1"/>
  </g>
</svg>