<?xml version="1.0" encoding="UTF-8"?>
<svg id="Capa_2" data-name="Capa 2" xmlns="http://www.w3.org/2000/svg" xmlns:xlink="http://www.w3.org/1999/xlink" viewBox="0 0 29.64 29.64">
  <defs>
    <style>
      .cls-1, .cls-2 {
        stroke-width: 0px;
      }

      .cls-2 {
        fill: #fff;
      }
    </style>
    <symbol id="MT.07.1" viewBox="0 0 850.39 850.39">
      <g id="t.04_b">
        <rect class="cls-2" width="850.39" height="850.39"/>
        <g>
          <path class="cls-1" d="m354.33,488.98c-12.62,0-21.26,8.76-21.26,21.26s8.64,21.26,21.26,21.26c13.29,0,21.26-9.38,21.26-21.26,0-12.5-8.63-21.26-21.26-21.26Z"/>
          <path class="cls-1" d="m609.45,531.5c12.62,0,21.26-9.38,21.26-21.26,0-12.5-8.63-21.26-21.26-21.26s-21.26,8.76-21.26,21.26,7.97,21.26,21.26,21.26Z"/>
          <path class="cls-1" d="m659.06,155.91h-368.5c-25.43,0-42.52,17.09-42.52,42.52v425.2c.84,8.48,6.54,14.17,14.17,14.17h14.17v14.17c0,23.57,18.95,42.52,42.52,42.52s42.52-18.95,42.52-42.52v-14.17h226.77v14.17c0,23.57,19.79,42.52,42.52,42.52s42.52-18.95,42.52-42.52v-14.17h14.17c7.63,0,13.33-5.7,14.17-14.17V198.43c0-25.43-17.09-42.52-42.52-42.52Zm-325.98,496.06c0,7.58-6.59,14.17-14.17,14.17-8.42,0-14.17-6.59-14.17-14.17v-14.17h28.35v14.17Zm311.81,0c0,7.58-5.75,14.17-14.17,14.17-7.58,0-14.17-6.59-14.17-14.17v-14.17h28.35v14.17Zm28.35-113.39v70.87h-396.85v-141.73h396.85v70.87Zm0-184.25v85.04h-396.85v-170.08h396.85v85.04Zm0-127.56v14.17h-396.85v-42.52c0-8.28,7.64-14.17,14.17-14.17h368.5c6.53,0,14.17,5.9,14.17,14.17v28.35Z"/>
          <rect class="cls-1" x="148.82" y="184.25" width="28.35" height="56.69"/>
          <rect class="cls-1" x="148.82" y="269.29" width="28.35" height="28.35"/>
          <rect class="cls-1" x="148.82" y="325.98" width="28.35" height="28.35"/>
          <rect class="cls-1" x="148.82" y="382.68" width="28.35" height="311.81"/>
        </g>
      </g>
    </symbol>
  </defs>
  <g id="AAFF_Y_FICHA" data-name="AAFF Y FICHA">
    <use width="850.39" height="850.39" transform="scale(.03)" xlink:href="#MT.07.1"/>
  </g>
</svg>