<?xml version="1.0" encoding="UTF-8"?>
<svg id="Capa_2" data-name="Capa 2" xmlns="http://www.w3.org/2000/svg" xmlns:xlink="http://www.w3.org/1999/xlink" viewBox="0 0 29.64 29.64">
  <defs>
    <style>
      .cls-1 {
        fill: #fff;
      }

      .cls-1, .cls-2 {
        stroke-width: 0px;
      }

      .cls-2 {
        fill: #0663ad;
      }
    </style>
    <symbol id="P_parking_azul" data-name="P_parking azul" viewBox="0 0 11.09 11.09">
      <g>
        <rect class="cls-2" width="11.09" height="11.09"/>
        <path class="cls-1" d="m3.13,9.25V1.85h2.77c.6,0,1.1.1,1.49.31.39.2.69.48.88.82.19.35.29.74.29,1.18,0,.41-.09.79-.27,1.13-.18.35-.47.63-.87.84-.39.21-.9.32-1.51.32h-1.34v2.79h-1.43Zm1.43-3.94h1.26c.46,0,.79-.1.99-.31.2-.21.3-.48.3-.83,0-.37-.1-.65-.3-.85-.2-.2-.53-.3-.99-.3h-1.26v2.29Z"/>
      </g>
    </symbol>
  </defs>
  <g id="AAFF_Y_FICHA" data-name="AAFF Y FICHA">
    <use width="11.09" height="11.09" transform="scale(2.67)" xlink:href="#P_parking_azul"/>
  </g>
</svg>