<?xml version="1.0" encoding="UTF-8"?>
<svg id="Capa_2" data-name="Capa 2" xmlns="http://www.w3.org/2000/svg" xmlns:xlink="http://www.w3.org/1999/xlink" viewBox="0 0 29.64 29.64">
  <defs>
    <style>
      .cls-1, .cls-2 {
        stroke-width: 0px;
      }

      .cls-2 {
        fill: #fff;
      }
    </style>
    <symbol id="MT.09.1" viewBox="0 0 850.39 850.39">
      <g>
        <g id="t.06_b">
          <rect class="cls-2" width="850.39" height="850.39"/>
          <path class="cls-1" d="m538.58,184.25c0-7.83-7-11.18-14.17-14.17l-99.21-42.52-99.21,42.52c-7.17,3-14.17,6.35-14.17,14.17s7,11.18,14.17,14.17l99.21,42.52,99.21-42.52c7.17-3,14.17-6.35,14.17-14.17Zm-113.39,35.43l-77.95-35.43,77.95-35.43,77.95,35.43-77.95,35.43Z"/>
        </g>
        <g>
          <path class="cls-1" d="m304.72,581.1c-15.94,0-28.35,11.67-28.35,28.35s11.51,28.35,28.35,28.35c17.72,0,28.35-12.5,28.35-28.35,0-16.67-11.51-28.35-28.35-28.35Z"/>
          <path class="cls-1" d="m545.67,581.1c-16.83,0-28.35,11.67-28.35,28.35s10.63,28.35,28.35,28.35,28.35-12.5,28.35-28.35c0-16.67-12.4-28.35-28.35-28.35Z"/>
          <path class="cls-1" d="m641.63,636.64l-21.16-309.25c-3.25-46.39-43.95-86.45-93.58-86.45h-203.37c-49.64,0-90.33,40.07-93.58,86.45l-21.16,309.25c-3.25,47.2,30.93,72.02,66.73,72.02h3.92l-14.17,56.69h28.35l14.17-56.69h234.86l14.17,56.69h28.35l-14.17-56.69h3.92c35.8,0,69.98-24.81,66.73-72.02Zm-366.13,43.67c-22.78,0-39.06-17.63-39.06-41.23l21.16-309.25c2.44-34.18,31.73-60.5,65.91-60.5h203.37c34.18,0,63.47,26.32,65.91,60.5l21.16,309.25c0,23.6-16.27,41.23-39.06,41.23h-299.4Z"/>
          <path class="cls-1" d="m569.2,507.76l-8.14-142.47c0-7.33-6.52-13.02-13.84-13.02h-244.06c-7.32,0-13.84,5.7-13.84,13.02l-8.14,142.47c0,8.14,4.89,14.65,13.84,14.65h260.33c8.95,0,13.84-6.52,13.84-14.65Zm-258.71-13.7l5.7-113.32h218.01l5.7,113.32h-229.42Z"/>
        </g>
      </g>
    </symbol>
  </defs>
  <g id="AAFF_Y_FICHA" data-name="AAFF Y FICHA">
    <use width="850.39" height="850.39" transform="scale(.03)" xlink:href="#MT.09.1"/>
  </g>
</svg>